<svg width="120" height="51" viewBox="0 0 120 51" fill="none" xmlns="http://www.w3.org/2000/svg">
<g clip-path="url(#clip0_1610_1259)">
<path d="M32.0748 34.2457C26.1271 38.3857 20.4273 42.5612 14.5033 46.3832C11.6534 48.2265 8.46123 49.6752 5.25139 50.7883C3.71728 51.3183 1.76423 50.6587 0 50.5351C0.206515 48.7094 -0.177013 46.5069 0.713953 45.1229C4.31322 39.5047 8.66184 34.4989 14.3676 30.8064C21.6133 26.1187 28.6584 21.107 36.0517 16.6784C41.0847 13.6631 46.5427 11.3487 51.8648 8.83401C55.9893 6.88471 56.0247 6.96127 57.9777 2.90365C57.7181 4.00492 57.4585 5.10619 57.1575 6.37824C61.9428 4.83529 66.5274 3.17455 71.2183 1.90249C74.5225 1.00734 77.9625 0.606879 81.3552 0.0709664C82.8481 -0.164599 83.9632 0.141636 83.4676 1.1899C78.9715 1.90249 75.1008 2.3854 71.295 3.16866C68.8109 3.68101 66.4271 4.69395 63.9725 5.38298C58.5441 6.90826 54.1955 9.67027 50.7143 14.3757C47.115 19.2342 42.3474 23.2212 38.5004 27.9207C35.9986 30.9831 33.898 34.4871 32.2341 38.0795C30.9006 40.9593 32.3875 42.5023 35.3141 41.2832C40.3649 39.1867 45.2092 36.5954 50.077 34.0808C60.6919 28.598 68.9879 20.1647 77.8504 12.4146C82.3937 8.44533 87.6156 5.21808 92.7018 1.92605C93.8642 1.17224 95.7582 1.54325 97.31 1.39602C96.5371 2.62097 96.0414 4.21693 94.9557 5.01196C86.0697 11.4665 77.0302 17.7266 68.1206 24.1517C64.5803 26.7076 61.2406 29.5403 57.8066 32.2434C57.9718 32.4672 58.1429 32.6909 58.3081 32.9147C66.197 27.2082 74.0918 21.4957 81.9807 15.7891C82.258 16.1366 82.5353 16.4781 82.8126 16.8256C81.0838 18.3273 79.3491 19.8291 77.5554 21.3838C78.7531 22.0787 80.659 18.8102 81.19 22.1258C82.4586 21.743 83.7095 21.2601 85.0076 21.0069C85.8986 20.8302 86.8485 20.9715 87.769 20.9715C87.8162 21.2719 87.8634 21.5722 87.9106 21.8667C88.8429 21.3367 89.7752 20.8184 90.7015 20.2766C92.8552 19.0222 94.5722 17.8326 97.7053 18.5275C100.644 19.1754 104.125 17.3438 107.376 16.6195C108.556 16.3545 109.742 16.1483 111.158 16.5429C110.84 16.7961 110.562 17.1966 110.202 17.2849C106.202 18.2684 102.137 20.1235 98.201 19.8938C94.1356 19.6583 91.4627 21.4015 88.4594 23.1918C87.1731 23.9573 85.757 24.9879 85.515 22.3791C81.8863 24.1811 78.4522 25.889 74.611 27.803C74.8589 26.737 75.0123 26.0892 75.207 25.2353C73.1772 26.5957 71.3481 27.8206 69.519 29.0397L69.0705 28.6274C69.3242 27.9796 69.578 27.3318 70.05 26.1245C63.7542 30.6886 57.842 34.9818 51.9239 39.2691C51.5639 38.8981 51.204 38.533 50.8441 38.162C52.2425 36.5189 53.6409 34.8758 55.0393 33.2386C54.9685 33.1032 54.8918 32.9677 54.821 32.8264C53.5701 33.5567 52.3428 34.334 51.0624 35.0113C46.6489 37.3551 42.2471 39.7226 37.7746 41.9546C36.6712 42.5081 35.3436 42.7849 34.0986 42.8615C31.3608 43.0264 30.0509 41.5188 30.5879 38.8098C30.8888 37.308 31.5319 35.8711 32.0748 34.2398V34.2457ZM53.7058 9.74094C52.3369 10.165 51.6524 10.2592 51.0919 10.5713C41.4919 15.8833 31.7208 20.9185 22.3804 26.6487C14.7747 31.3188 7.89479 37.0842 2.6906 44.4928C1.71703 45.8826 1.50461 47.8084 0.94407 49.4868C2.61389 49.4397 4.54924 49.9226 5.91224 49.2453C10.55 46.9486 15.1464 44.4869 19.4655 41.6483C32.4583 33.115 42.8903 21.796 53.6999 9.74094H53.7058ZM72.1388 19.1871C72.3158 19.3756 72.4928 19.564 72.6757 19.7466C80.4466 14.1814 88.2174 8.62201 95.9824 3.05676C95.77 2.76231 95.5517 2.46785 95.3393 2.17339C86.052 5.70688 79.414 12.8857 72.1388 19.1812V19.1871Z" fill="#1D2525"/>
<path d="M119.507 19.1459C93.3214 28.3447 67.088 37.4317 42.5481 50.6175C50.1833 43.9156 113.353 17.8561 119.507 19.1459Z" fill="#1D2525"/>
</g>
<defs>
<clipPath id="clip0_1610_1259">
<rect width="119.507" height="51" fill="white"/>
</clipPath>
</defs>
</svg>
